<svg width="122" height="163" viewBox="0 0 122 163" fill="none" xmlns="http://www.w3.org/2000/svg">
<path fill-rule="evenodd" clip-rule="evenodd" d="M68.7303 74.3998C69.0331 61.7628 59.0343 51.2729 46.3973 50.9701L44.4524 50.9235C29.0837 50.5552 17.8514 48.1004 10.7554 43.5592C4.25558 39.185 0.890896 32.2221 0.661332 22.6706C3.4865 9.70712 15.0297 -4.43595e-05 28.8402 -4.41839e-05L70.629 -4.36524e-05C114.523 -4.30942e-05 138.123 51.5636 109.433 84.7836L50.6671 152.828C33.2009 173.052 -8.33183e-05 160.699 -8.21503e-05 133.977L-8.12631e-05 113.666C1.5239 111.977 3.29397 110.502 5.31014 109.239C13.3911 104.09 25.2771 101.704 40.9682 102.08C55.9258 102.439 68.342 90.6035 68.7004 75.6459L68.7303 74.3998Z" fill="url(#paint0_linear_52_831)"/>
<defs>
<linearGradient id="paint0_linear_52_831" x1="-47.196" y1="162.745" x2="165.593" y2="162.745" gradientUnits="userSpaceOnUse">
<stop stop-color="#E68C4C"/>
<stop offset="1" stop-color="#F36551"/>
</linearGradient>
</defs>
</svg>
